<svg version="1.1" id="close_btn" xmlns="http://www.w3.org/2000/svg" xmlns:xlink="http://www.w3.org/1999/xlink" x="0px" y="0px" viewBox="0 0 43.652 43.652" style="enable-background:new 0 0 43.652 43.652;" xml:space="preserve">
<g>
    <path fill="#616161" d="M1.338,37.446c0.078,1.734,0.828,3.335,2.11,4.505c1.201,1.096,2.757,1.7,4.382,1.7    c1.822,0,3.572-0.771,4.801-2.117l9.195-10.07l9.195,10.071c1.229,1.345,2.979,2.117,4.801,2.117c1.626,0,3.183-0.604,4.382-1.7    c1.282-1.171,2.032-2.771,2.11-4.505c0.079-1.734-0.522-3.396-1.693-4.678L30.63,21.825l9.991-10.943    c1.171-1.282,1.772-2.944,1.693-4.678c-0.078-1.734-0.828-3.335-2.11-4.505C39.004,0.603,37.447,0,35.822,0    C34,0,32.25,0.771,31.021,2.117l-9.195,10.07L12.631,2.116C11.402,0.771,9.652,0,7.829,0C6.204,0,4.648,0.604,3.448,1.699    C2.166,2.87,1.416,4.47,1.338,6.204C1.259,7.938,1.86,9.6,3.031,10.882l9.991,10.944L3.031,32.767    C1.86,34.05,1.259,35.711,1.338,37.446z M5.246,34.79l10.24-11.215c0.898-0.982,0.898-2.52,0.001-3.5L5.246,8.857    c-0.63-0.69-0.954-1.584-0.912-2.518C4.377,5.405,4.78,4.544,5.472,3.913c1.371-1.252,3.695-1.143,4.944,0.225l9.629,10.546    c0.922,1.008,2.64,1.009,3.564-0.001l9.628-10.544c1.251-1.371,3.575-1.477,4.944-0.225c0.691,0.63,1.095,1.492,1.138,2.426    c0.042,0.934-0.282,1.829-0.912,2.519L28.166,20.073c-0.898,0.982-0.898,2.52-0.001,3.5L38.406,34.79    c0.63,0.69,0.954,1.584,0.912,2.519c-0.043,0.934-0.446,1.795-1.138,2.426c-1.369,1.252-3.691,1.146-4.944-0.225l-9.629-10.546    c-0.461-0.504-1.11-0.793-1.781-0.793s-1.32,0.289-1.782,0.794l-9.628,10.544c-1.252,1.37-3.571,1.479-4.944,0.225    c-0.691-0.63-1.095-1.492-1.138-2.426C4.292,36.375,4.616,35.481,5.246,34.79z"></path>
</g>
</svg>